<svg width="1094" height="1080" viewBox="0 0 1094 1080" fill="none" xmlns="http://www.w3.org/2000/svg">
<path d="M474.99 -93.0494C473.275 -84.0792 303.323 65.6751 539.266 134.948C775.209 204.221 760.886 288.883 620.165 421.91C479.445 554.936 521.159 657.748 705.498 724.596C889.836 791.443 936.088 880.246 789.722 1023.35" stroke="url(#paint0_linear_8_1451)"/>
<path d="M117.951 67.4969C122.239 75.5602 83.7211 298.779 310.966 204.825C538.212 110.871 580.132 185.809 553.9 377.669C527.669 569.529 624.624 623.474 810.145 559.984C995.667 496.493 1087.37 536.68 1063.06 739.931" stroke="url(#paint1_linear_8_1451)"/>
<path d="M444.564 -79.1199C443.335 -70.0705 281.688 88.6124 521.017 145.088C760.345 201.564 750.599 286.875 617.241 427.281C483.882 567.687 531.069 668.105 718.737 724.936C906.406 781.767 957.37 867.952 818.916 1018.73" stroke="url(#paint2_linear_8_1451)"/>
<path d="M415.726 -65.8739C414.966 -56.7731 261.732 110.048 503.659 154.085C745.585 198.122 740.259 283.823 614.332 430.93C488.405 578.038 540.716 675.885 731.069 722.945C921.423 770.006 976.771 853.443 846.291 1011.17" stroke="url(#paint3_linear_8_1451)"/>
<path d="M388.424 -53.3135C388.115 -44.1862 243.327 130.016 487.137 162.023C730.948 194.03 729.87 279.889 611.38 433.05C492.89 586.211 549.98 681.348 742.43 718.928C934.88 756.507 994.291 837.102 871.779 1001.09" stroke="url(#paint4_linear_8_1451)"/>
<path d="M362.609 -41.4364C362.733 -32.3047 226.355 148.558 471.408 168.985C716.46 189.411 719.449 275.225 608.344 433.825C497.238 592.425 558.77 684.752 752.783 713.177C946.797 741.602 1009.96 819.293 895.347 988.901" stroke="url(#paint5_linear_8_1451)"/>
<path d="M338.235 -30.2372C338.771 -21.1204 210.707 165.721 456.432 175.052C702.157 184.382 709.022 269.973 605.198 433.433C501.374 596.892 567.015 686.344 762.115 705.971C957.214 725.599 1023.82 800.356 916.994 974.97" stroke="url(#paint6_linear_8_1451)"/>
<path d="M315.259 -19.7073C316.187 -10.6221 196.283 181.558 442.182 180.304C688.081 179.05 698.623 264.266 601.93 432.043C505.238 599.819 574.668 686.363 770.432 697.575C966.196 708.788 1035.96 780.609 936.745 959.659" stroke="url(#paint7_linear_8_1451)"/>
<path d="M293.641 -9.83637C294.94 -0.796644 182.994 196.125 428.635 184.819C674.277 173.512 688.295 258.226 598.542 429.816C508.79 601.405 581.701 685.038 777.759 688.237C973.818 691.436 1046.46 760.346 954.649 943.302" stroke="url(#paint8_linear_8_1451)"/>
<path d="M273.344 -0.611261C274.992 8.37138 170.757 209.481 415.776 188.67C660.796 167.858 678.084 251.966 595.044 426.902C512.005 601.839 588.1 682.585 784.135 678.189C980.171 673.793 1055.43 739.837 970.77 926.212" stroke="url(#paint9_linear_8_1451)"/>
<path d="M254.335 7.98189C256.31 16.8982 159.5 221.685 403.595 191.927C647.689 162.168 668.041 245.587 591.456 423.444C514.87 601.3 593.867 679.209 789.61 667.646C985.354 656.083 1062.97 719.331 985.192 908.678" stroke="url(#paint10_linear_8_1451)"/>
<path d="M236.582 15.9587C238.863 24.8017 149.159 232.8 392.084 194.657C635.01 156.515 658.221 239.184 587.802 419.571C517.383 599.959 599.015 675.103 794.245 656.809C989.474 638.516 1069.22 699.055 998.006 890.966" stroke="url(#paint11_linear_8_1451)"/>
<path d="M220.058 23.3348C222.623 32.0997 139.675 242.883 381.244 196.924C622.813 150.964 648.679 232.841 584.116 415.406C519.554 597.972 603.567 670.443 798.105 645.861C992.643 621.278 1074.31 679.213 1009.31 873.322" stroke="url(#paint12_linear_8_1451)"/>
<path d="M204.737 30.1267C207.564 38.8104 131 251.996 371.076 198.784C611.151 145.573 639.471 226.634 580.434 411.06C521.397 595.486 607.554 665.396 801.263 634.968C994.973 604.54 1078.34 659.99 1019.23 855.967" stroke="url(#paint13_linear_8_1451)"/>
<path d="M190.595 36.3507C193.665 44.952 123.089 260.194 361.583 200.293C600.078 140.393 630.652 220.631 576.793 406.635C522.933 592.639 611.011 660.113 803.794 624.283C996.577 588.453 1081.46 641.551 1027.85 839.104" stroke="url(#paint14_linear_8_1451)"/>
<path d="M177.614 42.0229C180.904 50.5421 115.903 267.533 352.774 201.501C589.644 135.468 622.277 214.891 573.234 402.222C524.19 589.554 613.979 654.733 805.773 613.943C997.568 573.152 1083.8 624.043 1035.29 822.914" stroke="url(#paint15_linear_8_1451)"/>
<path d="M165.774 47.1593C169.265 55.5984 109.411 274.065 344.655 202.452C579.898 130.839 614.399 209.469 569.797 397.907C525.195 586.345 616.499 649.384 807.277 604.072C998.054 558.759 1085.46 607.597 1041.67 807.559" stroke="url(#paint16_linear_8_1451)"/>
<path d="M155.06 51.7749C158.731 60.137 103.584 279.839 337.235 203.189C570.886 126.54 607.068 204.41 566.524 393.763C525.98 583.116 618.618 644.179 808.377 594.779C998.137 545.379 1086.57 592.328 1047.09 793.184" stroke="url(#paint17_linear_8_1451)"/>
<path d="M145.458 55.8837C149.29 64.1733 98.3989 284.9 330.525 203.75C562.651 122.6 600.331 199.756 563.454 389.857C526.576 579.958 620.376 639.22 809.146 586.162C997.916 533.104 1087.24 578.335 1051.65 779.917" stroke="url(#paint18_linear_8_1451)"/>
<path d="M136.955 59.4988C140.929 67.7214 93.8349 289.289 324.534 204.166C555.232 119.043 594.232 195.541 560.623 386.247C527.015 576.953 621.818 634.596 809.649 578.305C997.48 522.014 1087.57 565.706 1055.44 767.869" stroke="url(#paint19_linear_8_1451)"/>
<path d="M129.542 62.6325C133.639 70.7946 89.8759 293.044 319.271 204.468C548.666 115.891 588.809 191.795 558.067 382.984C527.325 574.174 622.983 630.387 809.948 571.283C996.913 512.179 1087.65 554.513 1058.56 757.136" stroke="url(#paint20_linear_8_1451)"/>
<path d="M123.21 65.2953C127.411 73.404 86.5083 296.198 314.746 204.68C542.983 113.163 584.099 188.544 555.817 380.113C527.534 571.681 623.907 626.66 810.097 565.158C996.287 503.656 1087.56 544.821 1061.08 747.8" stroke="url(#paint21_linear_8_1451)"/>
<defs>
<linearGradient id="paint0_linear_8_1451" x1="769.768" y1="426.412" x2="512.911" y2="498.824" gradientUnits="userSpaceOnUse">
<stop stop-color="#FFF9F9"/>
<stop offset="1" stop-color="white"/>
</linearGradient>
<linearGradient id="paint1_linear_8_1451" x1="673.274" y1="287.384" x2="518.562" y2="504.832" gradientUnits="userSpaceOnUse">
<stop stop-color="#FFF9F9"/>
<stop offset="1" stop-color="white"/>
</linearGradient>
<linearGradient id="paint2_linear_8_1451" x1="766.869" y1="423.726" x2="514.281" y2="509.855" gradientUnits="userSpaceOnUse">
<stop stop-color="#FFF9F9"/>
<stop offset="1" stop-color="white"/>
</linearGradient>
<linearGradient id="paint3_linear_8_1451" x1="763.577" y1="419.651" x2="515.775" y2="518.713" gradientUnits="userSpaceOnUse">
<stop stop-color="#FFF9F9"/>
<stop offset="1" stop-color="white"/>
</linearGradient>
<linearGradient id="paint4_linear_8_1451" x1="759.884" y1="414.396" x2="517.29" y2="525.604" gradientUnits="userSpaceOnUse">
<stop stop-color="#FFF9F9"/>
<stop offset="1" stop-color="white"/>
</linearGradient>
<linearGradient id="paint5_linear_8_1451" x1="755.797" y1="408.16" x2="518.741" y2="530.73" gradientUnits="userSpaceOnUse">
<stop stop-color="#FFF9F9"/>
<stop offset="1" stop-color="white"/>
</linearGradient>
<linearGradient id="paint6_linear_8_1451" x1="751.341" y1="401.13" x2="520.066" y2="534.289" gradientUnits="userSpaceOnUse">
<stop stop-color="#FFF9F9"/>
<stop offset="1" stop-color="white"/>
</linearGradient>
<linearGradient id="paint7_linear_8_1451" x1="746.548" y1="393.48" x2="521.219" y2="536.469" gradientUnits="userSpaceOnUse">
<stop stop-color="#FFF9F9"/>
<stop offset="1" stop-color="white"/>
</linearGradient>
<linearGradient id="paint8_linear_8_1451" x1="741.462" y1="385.372" x2="522.168" y2="537.455" gradientUnits="userSpaceOnUse">
<stop stop-color="#FFF9F9"/>
<stop offset="1" stop-color="white"/>
</linearGradient>
<linearGradient id="paint9_linear_8_1451" x1="736.136" y1="376.957" x2="522.896" y2="537.419" gradientUnits="userSpaceOnUse">
<stop stop-color="#FFF9F9"/>
<stop offset="1" stop-color="white"/>
</linearGradient>
<linearGradient id="paint10_linear_8_1451" x1="730.626" y1="368.372" x2="523.397" y2="536.525" gradientUnits="userSpaceOnUse">
<stop stop-color="#FFF9F9"/>
<stop offset="1" stop-color="white"/>
</linearGradient>
<linearGradient id="paint11_linear_8_1451" x1="724.995" y1="359.742" x2="523.676" y2="534.928" gradientUnits="userSpaceOnUse">
<stop stop-color="#FFF9F9"/>
<stop offset="1" stop-color="white"/>
</linearGradient>
<linearGradient id="paint12_linear_8_1451" x1="719.307" y1="351.182" x2="523.745" y2="532.772" gradientUnits="userSpaceOnUse">
<stop stop-color="#FFF9F9"/>
<stop offset="1" stop-color="white"/>
</linearGradient>
<linearGradient id="paint13_linear_8_1451" x1="713.63" y1="342.795" x2="523.623" y2="530.19" gradientUnits="userSpaceOnUse">
<stop stop-color="#FFF9F9"/>
<stop offset="1" stop-color="white"/>
</linearGradient>
<linearGradient id="paint14_linear_8_1451" x1="708.029" y1="334.674" x2="523.334" y2="527.306" gradientUnits="userSpaceOnUse">
<stop stop-color="#FFF9F9"/>
<stop offset="1" stop-color="white"/>
</linearGradient>
<linearGradient id="paint15_linear_8_1451" x1="702.57" y1="326.9" x2="522.905" y2="524.232" gradientUnits="userSpaceOnUse">
<stop stop-color="#FFF9F9"/>
<stop offset="1" stop-color="white"/>
</linearGradient>
<linearGradient id="paint16_linear_8_1451" x1="697.317" y1="319.549" x2="522.367" y2="521.072" gradientUnits="userSpaceOnUse">
<stop stop-color="#FFF9F9"/>
<stop offset="1" stop-color="white"/>
</linearGradient>
<linearGradient id="paint17_linear_8_1451" x1="692.331" y1="312.684" x2="521.751" y2="517.919" gradientUnits="userSpaceOnUse">
<stop stop-color="#FFF9F9"/>
<stop offset="1" stop-color="white"/>
</linearGradient>
<linearGradient id="paint18_linear_8_1451" x1="687.671" y1="306.362" x2="521.088" y2="514.854" gradientUnits="userSpaceOnUse">
<stop stop-color="#FFF9F9"/>
<stop offset="1" stop-color="white"/>
</linearGradient>
<linearGradient id="paint19_linear_8_1451" x1="683.388" y1="300.631" x2="520.409" y2="511.953" gradientUnits="userSpaceOnUse">
<stop stop-color="#FFF9F9"/>
<stop offset="1" stop-color="white"/>
</linearGradient>
<linearGradient id="paint20_linear_8_1451" x1="679.533" y1="295.536" x2="519.744" y2="509.28" gradientUnits="userSpaceOnUse">
<stop stop-color="#FFF9F9"/>
<stop offset="1" stop-color="white"/>
</linearGradient>
<linearGradient id="paint21_linear_8_1451" x1="676.149" y1="291.11" x2="519.121" y2="506.891" gradientUnits="userSpaceOnUse">
<stop stop-color="#FFF9F9"/>
<stop offset="1" stop-color="white"/>
</linearGradient>
</defs>
</svg>
