<svg width="772" height="210" viewBox="0 0 772 210" fill="none" xmlns="http://www.w3.org/2000/svg">
<g clip-path="url(#clip0_41_5)">
<path d="M153.706 83.5822L153.674 63.3819L115.595 39.0159V54.6011L140.711 70.7909L140.731 83.1986L129.062 90.9331L121.101 85.2485V75.6191L108.13 66.9314V84.458L87.5663 96.8115L87.5307 129.439L72.9918 137.452L65.5263 131.729V122.282L74.3613 116.357V116.279V101.659L58.4607 112.075L46.3047 104.333L35.2015 111.451L52.5549 123.08V130.222L40.0465 138.503L27.2888 130.047V101.911L46.2295 89.356L46.2493 77.2815L70.5376 92.5994L90.9547 79.2926L78.5097 72.1859L70.3634 77.5605L52.6222 66.075L72.6315 54.6592L89.9611 64.6025V49.7729L72.6513 39.8335L33.2936 62.2969L33.2659 82.505L14.3174 95.0677V136.887L33.2659 149.449L33.2936 169.661L71.3768 194.016V178.442L46.2572 162.252L46.2374 149.845L57.9065 142.11L65.8668 147.795V157.424L78.8382 166.112V148.581L99.6947 136.232L99.9282 103.604L113.98 95.5909L121.442 101.314V110.758L112.607 116.686V116.76V131.384L128.507 120.964L140.663 128.71L151.767 121.592L134.417 109.952V102.822L146.922 94.5407L159.679 102.996V131.132L140.743 143.687L140.723 155.758L116.431 140.436L96.0134 153.654L108.462 160.753L116.609 155.479L134.35 166.964L114.341 178.384L97.007 168.437V183.263L114.321 193.198L153.674 170.746L153.706 150.534L172.651 137.972V96.1489L153.706 83.5822Z" fill="#02B97C"/>
<path d="M193.85 121.5C193.85 113.947 195.537 107.2 198.91 101.26C202.357 95.2467 207.013 90.59 212.88 87.29C218.82 83.9167 225.457 82.23 232.79 82.23C241.37 82.23 248.887 84.43 255.34 88.83C261.793 93.23 266.303 99.3167 268.87 107.09H251.16C249.4 103.423 246.907 100.673 243.68 98.84C240.527 97.0067 236.86 96.09 232.68 96.09C228.207 96.09 224.21 97.1533 220.69 99.28C217.243 101.333 214.53 104.267 212.55 108.08C210.643 111.893 209.69 116.367 209.69 121.5C209.69 126.56 210.643 131.033 212.55 134.92C214.53 138.733 217.243 141.703 220.69 143.83C224.21 145.883 228.207 146.91 232.68 146.91C236.86 146.91 240.527 145.993 243.68 144.16C246.907 142.253 249.4 139.467 251.16 135.8H268.87C266.303 143.647 261.793 149.77 255.34 154.17C248.96 158.497 241.443 160.66 232.79 160.66C225.457 160.66 218.82 159.01 212.88 155.71C207.013 152.337 202.357 147.68 198.91 141.74C195.537 135.8 193.85 129.053 193.85 121.5ZM309.084 160.99C303.217 160.99 297.937 159.707 293.244 157.14C288.55 154.5 284.847 150.797 282.134 146.03C279.494 141.263 278.174 135.763 278.174 129.53C278.174 123.297 279.53 117.797 282.244 113.03C285.03 108.263 288.807 104.597 293.574 102.03C298.34 99.39 303.657 98.07 309.524 98.07C315.39 98.07 320.707 99.39 325.474 102.03C330.24 104.597 333.98 108.263 336.694 113.03C339.48 117.797 340.874 123.297 340.874 129.53C340.874 135.763 339.444 141.263 336.584 146.03C333.797 150.797 329.984 154.5 325.144 157.14C320.377 159.707 315.024 160.99 309.084 160.99ZM309.084 147.57C311.87 147.57 314.474 146.91 316.894 145.59C319.387 144.197 321.367 142.143 322.834 139.43C324.3 136.717 325.034 133.417 325.034 129.53C325.034 123.737 323.494 119.3 320.414 116.22C317.407 113.067 313.704 111.49 309.304 111.49C304.904 111.49 301.2 113.067 298.194 116.22C295.26 119.3 293.794 123.737 293.794 129.53C293.794 135.323 295.224 139.797 298.084 142.95C301.017 146.03 304.684 147.57 309.084 147.57ZM379.23 160.99C373.363 160.99 368.083 159.707 363.39 157.14C358.697 154.5 354.993 150.797 352.28 146.03C349.64 141.263 348.32 135.763 348.32 129.53C348.32 123.297 349.677 117.797 352.39 113.03C355.177 108.263 358.953 104.597 363.72 102.03C368.487 99.39 373.803 98.07 379.67 98.07C385.537 98.07 390.853 99.39 395.62 102.03C400.387 104.597 404.127 108.263 406.84 113.03C409.627 117.797 411.02 123.297 411.02 129.53C411.02 135.763 409.59 141.263 406.73 146.03C403.943 150.797 400.13 154.5 395.29 157.14C390.523 159.707 385.17 160.99 379.23 160.99ZM379.23 147.57C382.017 147.57 384.62 146.91 387.04 145.59C389.533 144.197 391.513 142.143 392.98 139.43C394.447 136.717 395.18 133.417 395.18 129.53C395.18 123.737 393.64 119.3 390.56 116.22C387.553 113.067 383.85 111.49 379.45 111.49C375.05 111.49 371.347 113.067 368.34 116.22C365.407 119.3 363.94 123.737 363.94 129.53C363.94 135.323 365.37 139.797 368.23 142.95C371.163 146.03 374.83 147.57 379.23 147.57ZM437.717 78.6V160H422.317V78.6H437.717ZM487.252 98.18C491.872 98.18 495.978 99.2067 499.572 101.26C503.165 103.24 505.952 106.21 507.932 110.17C509.985 114.057 511.012 118.75 511.012 124.25V160H495.612V126.34C495.612 121.5 494.402 117.797 491.982 115.23C489.562 112.59 486.262 111.27 482.082 111.27C477.828 111.27 474.455 112.59 471.962 115.23C469.542 117.797 468.332 121.5 468.332 126.34V160H452.932V78.6H468.332V106.65C470.312 104.01 472.952 101.957 476.252 100.49C479.552 98.95 483.218 98.18 487.252 98.18ZM552.716 160.99C546.85 160.99 541.57 159.707 536.876 157.14C532.183 154.5 528.48 150.797 525.766 146.03C523.126 141.263 521.806 135.763 521.806 129.53C521.806 123.297 523.163 117.797 525.876 113.03C528.663 108.263 532.44 104.597 537.206 102.03C541.973 99.39 547.29 98.07 553.156 98.07C559.023 98.07 564.34 99.39 569.106 102.03C573.873 104.597 577.613 108.263 580.326 113.03C583.113 117.797 584.506 123.297 584.506 129.53C584.506 135.763 583.076 141.263 580.216 146.03C577.43 150.797 573.616 154.5 568.776 157.14C564.01 159.707 558.656 160.99 552.716 160.99ZM552.716 147.57C555.503 147.57 558.106 146.91 560.526 145.59C563.02 144.197 565 142.143 566.466 139.43C567.933 136.717 568.666 133.417 568.666 129.53C568.666 123.737 567.126 119.3 564.046 116.22C561.04 113.067 557.336 111.49 552.936 111.49C548.536 111.49 544.833 113.067 541.826 116.22C538.893 119.3 537.426 123.737 537.426 129.53C537.426 135.323 538.856 139.797 541.716 142.95C544.65 146.03 548.316 147.57 552.716 147.57ZM671.483 98.18C678.963 98.18 684.976 100.49 689.523 105.11C694.143 109.657 696.453 116.037 696.453 124.25V160H681.053V126.34C681.053 121.573 679.843 117.943 677.423 115.45C675.003 112.883 671.703 111.6 667.523 111.6C663.343 111.6 660.006 112.883 657.513 115.45C655.093 117.943 653.883 121.573 653.883 126.34V160H638.483V126.34C638.483 121.573 637.273 117.943 634.853 115.45C632.433 112.883 629.133 111.6 624.953 111.6C620.7 111.6 617.326 112.883 614.833 115.45C612.413 117.943 611.203 121.573 611.203 126.34V160H595.803V99.06H611.203V106.43C613.183 103.863 615.713 101.847 618.793 100.38C621.946 98.9133 625.393 98.18 629.133 98.18C633.9 98.18 638.153 99.2067 641.893 101.26C645.633 103.24 648.53 106.1 650.583 109.84C652.563 106.32 655.423 103.497 659.163 101.37C662.976 99.2433 667.083 98.18 671.483 98.18ZM767.717 128.21C767.717 130.41 767.57 132.39 767.277 134.15H722.727C723.093 138.55 724.633 141.997 727.347 144.49C730.06 146.983 733.397 148.23 737.357 148.23C743.077 148.23 747.147 145.773 749.567 140.86H766.177C764.417 146.727 761.043 151.567 756.057 155.38C751.07 159.12 744.947 160.99 737.687 160.99C731.82 160.99 726.54 159.707 721.847 157.14C717.227 154.5 713.597 150.797 710.957 146.03C708.39 141.263 707.107 135.763 707.107 129.53C707.107 123.223 708.39 117.687 710.957 112.92C713.523 108.153 717.117 104.487 721.737 101.92C726.357 99.3533 731.673 98.07 737.687 98.07C743.48 98.07 748.65 99.3167 753.197 101.81C757.817 104.303 761.373 107.86 763.867 112.48C766.433 117.027 767.717 122.27 767.717 128.21ZM751.767 123.81C751.693 119.85 750.263 116.697 747.477 114.35C744.69 111.93 741.28 110.72 737.247 110.72C733.433 110.72 730.207 111.893 727.567 114.24C725 116.513 723.423 119.703 722.837 123.81H751.767Z" fill="white"/>
</g>
<defs>
<clipPath id="clip0_41_5">
<rect width="772" height="210" fill="white"/>
</clipPath>
</defs>
</svg>
